<svg width="25" height="16" viewBox="0 0 25 16" fill="none" xmlns="http://www.w3.org/2000/svg">
<path d="M10.0694 6.8446C11.4497 6.21374 12.1701 5.25916 12.1701 3.77332C12.1701 0.84314 9.88715 0.129272 7.2526 0.129272H0V14.8383H7.4566C10.2517 14.8383 12.8776 13.5558 12.8776 10.5675C12.8776 8.72058 11.9618 7.3551 10.0694 6.8446ZM3.38108 2.64026H6.55382C7.77344 2.64026 8.87153 2.96814 8.87153 4.32117C8.87153 5.57043 8.01649 6.07263 6.8099 6.07263H3.38108V2.64026ZM6.99653 12.3397H3.38108V8.28894H7.06597C8.55469 8.28894 9.49653 8.88245 9.49653 10.389C9.49653 11.8749 8.3724 12.3397 6.99653 12.3397ZM22.5564 2.34973H16.3194V0.901245H22.5564V2.34973ZM25 9.66687C25 6.51672 23.0729 3.88953 19.579 3.88953C16.1849 3.88953 13.8802 6.32996 13.8802 9.52576C13.8802 12.8419 16.0634 15.1163 19.579 15.1163C22.2396 15.1163 23.9627 13.9708 24.7917 11.5345H22.092C21.8012 12.4435 20.6033 12.9249 19.6745 12.9249C17.8819 12.9249 16.9401 11.9205 16.9401 10.2147H24.974C24.987 10.0404 25 9.85364 25 9.66687ZM16.9444 8.37195C17.0443 6.97327 18.0165 6.09753 19.4835 6.09753C21.02 6.09753 21.7925 6.96082 21.9227 8.37195H16.9444Z" fill="#464646"/>
</svg>
