<svg width="46" height="37" viewBox="0 0 46 37" fill="none" xmlns="http://www.w3.org/2000/svg">
<path d="M44.8284 10.4947L23.9264 0.217366C23.3391 -0.0724554 22.6452 -0.0724554 22.0557 0.217366L1.15379 10.4947C0.731568 10.7003 0.411768 11.0579 0.223651 11.4464C0.0961489 11.6972 0 12.1227 0 12.3344V24.1841C0 25.3188 0.936407 26.2396 2.09019 26.2396C3.24398 26.2396 4.18039 25.3188 4.18039 24.1841V14.7331L23.0235 22.4514L44.6716 14.2419C45.4345 13.9397 45.9487 13.2285 45.9822 12.4186C46.0177 11.6088 45.5641 10.8585 44.8284 10.4947ZM22.9921 26.7226C22.7183 26.7226 22.4445 26.6692 22.1874 26.5644L8.36077 20.8995V27.0926C8.36077 27.8717 8.80807 28.5828 9.51665 28.9323C9.86007 29.101 10.2045 29.2737 10.552 29.4478C13.8323 31.0918 17.3903 32.8747 22.9921 32.8747C28.5964 32.8747 32.1622 31.0872 35.4413 29.4435C35.7858 29.2708 36.1273 29.0996 36.4676 28.9323C37.1762 28.5849 37.6235 27.8717 37.6235 27.0947V21.3373L23.7425 26.587C23.5 26.6754 23.2471 26.7226 22.9921 26.7226ZM0 30.8336C0 29.699 0.936407 28.7781 2.09019 28.7781C3.24398 28.7781 4.18039 29.699 4.18039 30.8336V34.9445C4.18039 36.0791 3.24398 37 2.09019 37C0.936407 37 0 36.0791 0 34.9445V30.8336Z" fill="#41B66B"/>
</svg>
