<svg width="40" height="39" viewBox="0 0 40 39" fill="none" xmlns="http://www.w3.org/2000/svg">
<path d="M9.74995 31.6874C9.74995 30.3394 8.87653 29.2499 7.80036 29.2499H1.9496C0.873433 29.2499 0 30.3394 0 31.6874V36.5623C0 37.9103 0.873433 38.9998 1.9496 38.9998H7.79841C8.87458 38.9998 9.748 37.9103 9.748 36.5623V31.6874H9.74995Z" fill="#41B66B"/>
<path d="M24.3765 16.841C24.3765 15.6156 23.5029 14.6251 22.4265 14.6251H16.5765C15.5002 14.6251 14.6266 15.6156 14.6266 16.841V36.7841C14.6266 38.0096 15.5002 39 16.5765 39H22.4265C23.5029 39 24.3765 38.0096 24.3765 36.7841V16.841Z" fill="#41B66B"/>
<path d="M39.0017 2.16666C39.0017 0.968496 38.128 0 37.0517 0H31.2017C30.1253 0 29.2517 0.968496 29.2517 2.16666V36.8331C29.2517 38.0313 30.1253 38.9998 31.2017 38.9998H37.0517C38.128 38.9998 39.0017 38.0313 39.0017 36.8331V2.16666Z" fill="#41B66B"/>
</svg>
