<svg width="40" height="37" viewBox="0 0 40 37" fill="none" xmlns="http://www.w3.org/2000/svg">
<path fill-rule="evenodd" clip-rule="evenodd" d="M36.3971 11.6842C37.0784 11.2747 37.9428 11.3161 38.5828 11.7906C39.2207 12.267 39.5119 13.0782 39.3211 13.85L35.3832 29.6011C35.1629 30.4791 34.3752 31.0934 33.4715 31.0934H5.90732C5.00361 31.0934 4.21605 30.477 3.99556 29.6011L0.0578024 13.85C-0.133158 13.0782 0.158215 12.267 0.796128 11.7906C1.438 11.318 2.30036 11.2767 2.98355 11.6842L11.2193 16.6261L18.0533 6.37419C18.1 6.30417 18.1651 6.25789 18.2304 6.2115C18.2697 6.18353 18.3091 6.1555 18.3447 6.12219L16.4486 4.22419C16.0667 3.84224 16.0667 3.21416 16.4486 2.83221L18.9944 0.286463C19.3764 -0.0954876 20.0044 -0.0954876 20.3864 0.286463L22.9321 2.83221C23.3141 3.21416 23.3141 3.84224 22.9321 4.22419L21.0361 6.12219C21.0716 6.15618 21.1118 6.18468 21.152 6.21324C21.2166 6.25907 21.2814 6.30506 21.3275 6.37419L28.1615 16.6261L36.3971 11.6842ZM3.93871 33.0621H35.4405V37H3.93871V33.0621Z" fill="#41B66B"/>
</svg>
