<svg width="41" height="41" viewBox="0 0 41 41" fill="none" xmlns="http://www.w3.org/2000/svg">
<path d="M35.1429 5.85714V0H31.2381V5.85714H25.381V9.7619H31.2381V15.619H35.1429V9.7619H41V5.85714H35.1429Z" fill="#41B66B"/>
<path d="M9.7619 5.85714H21.4762V15.619H3.90476V37.0952H31.2381V19.5238H35.1429V37.0952C35.1429 39.2429 33.3857 41 31.2381 41H3.90476C2.86916 41 1.87596 40.5886 1.14369 39.8563C0.411386 39.124 0 38.1308 0 37.0952L0.0195238 9.7619C0.0195238 7.61429 1.73762 5.85714 3.90476 5.85714H5.85714V1.95238H9.7619V5.85714Z" fill="#41B66B"/>
<path d="M7.80952 19.5238H17.5714V29.2857H7.80952V19.5238Z" fill="#41B66B"/>
</svg>
