<svg width="44" height="30" viewBox="0 0 44 30" fill="none" xmlns="http://www.w3.org/2000/svg">
<path d="M8.00834 0H35.7092C39.1475 0 42.0024 2.60278 42.2508 5.96419L43.7066 25.6659C43.8712 27.8925 42.1629 29.8281 39.8913 29.9895C39.7921 29.9966 39.6928 30 39.5933 30C36.9857 30 34.7109 28.2651 34.0703 25.7876L32.9428 21.4286H10.7746L9.64723 25.7876C9.0065 28.2651 6.7317 30 4.12415 30C1.84645 30 0 28.1901 0 25.9577C0 25.8604 0.00360742 25.7629 0.0107785 25.6659L1.46661 5.96419C1.71499 2.60278 4.56981 0 8.00834 0ZM27.3245 10.7143C29.1356 10.7143 30.604 9.27521 30.604 7.5C30.604 5.72479 29.1356 4.28571 27.3245 4.28571C25.5134 4.28571 24.0451 5.72479 24.0451 7.5C24.0451 9.27521 25.5134 10.7143 27.3245 10.7143ZM36.0697 17.1429C37.8808 17.1429 39.3491 15.7037 39.3491 13.9286C39.3491 12.1534 37.8808 10.7143 36.0697 10.7143C34.2586 10.7143 32.7902 12.1534 32.7902 13.9286C32.7902 15.7037 34.2586 17.1429 36.0697 17.1429ZM8.74106 8.57143H4.36847V12.8571H8.74106V17.1429H13.1136V12.8571H17.4862V8.57143H13.1136V4.28571H8.74106V8.57143Z" fill="#41B66B"/>
</svg>
