<svg width="21" height="16" viewBox="0 0 21 16" fill="none" xmlns="http://www.w3.org/2000/svg">
<path d="M2.64272 0.799805H18.5427C20.0427 0.799805 20.7987 1.5078 20.7987 2.9478V13.0518C20.7987 14.4798 20.0427 15.1998 18.5427 15.1998H2.64272C1.14272 15.1998 0.386719 14.4798 0.386719 13.0518V2.9478C0.386719 1.5078 1.14272 0.799805 2.64272 0.799805ZM10.5867 11.1198L18.6747 4.4838C18.9627 4.2438 19.1907 3.6918 18.8307 3.1998C18.4827 2.7078 17.8467 2.6958 17.4267 2.9958L10.5867 7.6278L3.75872 2.9958C3.33872 2.6958 2.70272 2.7078 2.35472 3.1998C1.99472 3.6918 2.22272 4.2438 2.51072 4.4838L10.5867 11.1198Z" fill="black"/>
</svg>
