<svg width="31" height="29" viewBox="0 0 31 29" fill="none" xmlns="http://www.w3.org/2000/svg">
<path fill-rule="evenodd" clip-rule="evenodd" d="M30.4556 14.535C30.4556 16.0369 28.0191 17.1586 27.5623 18.5084C27.1055 19.8583 28.3998 22.3108 27.5623 23.4325C26.7248 24.5542 24.0599 24.0979 22.8798 24.9534C21.6996 25.8089 21.376 28.4516 19.9484 28.9268C18.5208 29.4021 16.7696 27.4059 15.2468 27.4059C13.7241 27.4059 11.9158 29.3071 10.5452 28.9268C9.17475 28.5466 8.79405 25.8089 7.6139 24.9534C6.43374 24.0979 3.80695 24.6112 2.93135 23.4325C2.05575 22.2537 3.36915 19.9343 2.93135 18.5084C2.49355 17.0826 0 16.0369 0 14.535C0 13.0331 2.43645 11.9114 2.89328 10.5615C3.35012 9.21171 2.05575 6.7592 2.89328 5.63751C3.73081 4.51582 6.41471 4.9721 7.6139 4.11657C8.81309 3.26105 9.09861 0.61842 10.5262 0.0860923C11.9538 -0.446235 13.705 1.66406 15.2278 1.66406C16.7506 1.66406 18.5589 -0.237107 19.9294 0.143127C21.2999 0.523361 21.6615 3.26105 22.8417 4.11657C24.0218 4.9721 26.6486 4.45878 27.5242 5.63751C28.3998 6.81623 27.0864 9.13566 27.5242 10.5615C27.962 11.9874 30.4556 13.0331 30.4556 14.535Z" fill="#3BA55C"/>
<path d="M14.3745 21.4979L7.95026 16.6397L9.83974 14.0486L13.6187 16.9636L20.4964 7.83771L23.0661 9.7429L14.3745 21.4979Z" fill="white"/>
</svg>
