<svg width="279" height="218" viewBox="0 0 279 218" fill="none" xmlns="http://www.w3.org/2000/svg">
<g filter="url(#filter0_d_0_76)">
<rect x="33" y="24" width="213" height="152" rx="16" fill="white"/>
<path d="M43.6458 49L40.4398 39.2H42.7918L45.5778 47.88H44.4018L47.3138 39.2H49.4138L52.2138 47.88H51.0798L53.9358 39.2H56.1058L52.8998 49H50.4638L47.9858 41.384H48.6298L46.0818 49H43.6458ZM60.3954 49.112C59.5367 49.112 58.7807 48.944 58.1274 48.608C57.4834 48.272 56.9841 47.8147 56.6294 47.236C56.2747 46.648 56.0974 45.9807 56.0974 45.234C56.0974 44.478 56.2701 43.8107 56.6154 43.232C56.9701 42.644 57.4507 42.1867 58.0574 41.86C58.6641 41.524 59.3501 41.356 60.1154 41.356C60.8527 41.356 61.5154 41.5147 62.1034 41.832C62.7007 42.14 63.1721 42.588 63.5174 43.176C63.8627 43.7547 64.0354 44.45 64.0354 45.262C64.0354 45.346 64.0307 45.444 64.0214 45.556C64.0121 45.6587 64.0027 45.7567 63.9934 45.85H57.8754V44.576H62.8454L62.0054 44.954C62.0054 44.562 61.9261 44.2213 61.7674 43.932C61.6087 43.6427 61.3894 43.4187 61.1094 43.26C60.8294 43.092 60.5027 43.008 60.1294 43.008C59.7561 43.008 59.4247 43.092 59.1354 43.26C58.8554 43.4187 58.6361 43.6473 58.4774 43.946C58.3187 44.2353 58.2394 44.5807 58.2394 44.982V45.318C58.2394 45.7287 58.3281 46.0927 58.5054 46.41C58.6921 46.718 58.9487 46.956 59.2754 47.124C59.6114 47.2827 60.0034 47.362 60.4514 47.362C60.8527 47.362 61.2027 47.3013 61.5014 47.18C61.8094 47.0587 62.0894 46.8767 62.3414 46.634L63.5034 47.894C63.1581 48.286 62.7241 48.5893 62.2014 48.804C61.6787 49.0093 61.0767 49.112 60.3954 49.112ZM69.2274 49.112C68.3688 49.112 67.6128 48.944 66.9594 48.608C66.3154 48.272 65.8161 47.8147 65.4614 47.236C65.1068 46.648 64.9294 45.9807 64.9294 45.234C64.9294 44.478 65.1021 43.8107 65.4474 43.232C65.8021 42.644 66.2828 42.1867 66.8894 41.86C67.4961 41.524 68.1821 41.356 68.9474 41.356C69.6848 41.356 70.3474 41.5147 70.9354 41.832C71.5328 42.14 72.0041 42.588 72.3494 43.176C72.6948 43.7547 72.8674 44.45 72.8674 45.262C72.8674 45.346 72.8628 45.444 72.8534 45.556C72.8441 45.6587 72.8348 45.7567 72.8254 45.85H66.7074V44.576H71.6774L70.8374 44.954C70.8374 44.562 70.7581 44.2213 70.5994 43.932C70.4408 43.6427 70.2214 43.4187 69.9414 43.26C69.6614 43.092 69.3348 43.008 68.9614 43.008C68.5881 43.008 68.2568 43.092 67.9674 43.26C67.6874 43.4187 67.4681 43.6473 67.3094 43.946C67.1508 44.2353 67.0714 44.5807 67.0714 44.982V45.318C67.0714 45.7287 67.1601 46.0927 67.3374 46.41C67.5241 46.718 67.7808 46.956 68.1074 47.124C68.4434 47.2827 68.8354 47.362 69.2834 47.362C69.6848 47.362 70.0348 47.3013 70.3334 47.18C70.6414 47.0587 70.9214 46.8767 71.1734 46.634L72.3354 47.894C71.9901 48.286 71.5561 48.5893 71.0334 48.804C70.5108 49.0093 69.9088 49.112 69.2274 49.112ZM76.1275 47.46L76.1835 44.8L79.6975 41.468H82.3015L78.9275 44.898L77.7935 45.822L76.1275 47.46ZM74.3215 49V38.612H76.5055V49H74.3215ZM79.9355 49L77.3875 45.836L78.7595 44.142L82.5815 49H79.9355ZM83.5637 49V38.612H85.7477V49H83.5637ZM88.7266 51.828C88.3346 51.828 87.9473 51.7673 87.5646 51.646C87.1819 51.5247 86.8693 51.3567 86.6266 51.142L87.4246 49.588C87.5926 49.7373 87.7839 49.854 87.9986 49.938C88.2226 50.022 88.4419 50.064 88.6566 50.064C88.9646 50.064 89.2073 49.9893 89.3846 49.84C89.5713 49.7 89.7393 49.462 89.8886 49.126L90.2806 48.202L90.4486 47.964L93.1506 41.468H95.2506L91.8486 49.462C91.6059 50.0687 91.3259 50.5447 91.0086 50.89C90.7006 51.2353 90.3553 51.478 89.9726 51.618C89.5993 51.758 89.1839 51.828 88.7266 51.828ZM90.0146 49.294L86.6546 41.468H88.9086L91.5126 47.768L90.0146 49.294ZM104.993 49.168C104.218 49.168 103.504 49.0467 102.851 48.804C102.207 48.552 101.642 48.1973 101.157 47.74C100.681 47.2827 100.307 46.746 100.037 46.13C99.7753 45.514 99.6446 44.8373 99.6446 44.1C99.6446 43.3627 99.7753 42.686 100.037 42.07C100.307 41.454 100.685 40.9173 101.171 40.46C101.656 40.0027 102.225 39.6527 102.879 39.41C103.532 39.158 104.251 39.032 105.035 39.032C105.903 39.032 106.682 39.1767 107.373 39.466C108.073 39.7553 108.661 40.1753 109.137 40.726L107.681 42.07C107.326 41.6967 106.939 41.4213 106.519 41.244C106.099 41.0573 105.641 40.964 105.147 40.964C104.671 40.964 104.237 41.0387 103.845 41.188C103.453 41.3373 103.112 41.552 102.823 41.832C102.543 42.112 102.323 42.4433 102.165 42.826C102.015 43.2087 101.941 43.6333 101.941 44.1C101.941 44.5573 102.015 44.9773 102.165 45.36C102.323 45.7427 102.543 46.0787 102.823 46.368C103.112 46.648 103.448 46.8627 103.831 47.012C104.223 47.1613 104.652 47.236 105.119 47.236C105.567 47.236 106.001 47.166 106.421 47.026C106.85 46.8767 107.265 46.6293 107.667 46.284L108.955 47.922C108.423 48.3233 107.802 48.6313 107.093 48.846C106.393 49.0607 105.693 49.168 104.993 49.168ZM106.883 47.628V43.946H108.955V47.922L106.883 47.628ZM110.907 49V41.468H112.993V43.596L112.699 42.98C112.923 42.448 113.283 42.0467 113.777 41.776C114.272 41.496 114.874 41.356 115.583 41.356V43.372C115.49 43.3627 115.406 43.358 115.331 43.358C115.257 43.3487 115.177 43.344 115.093 43.344C114.496 43.344 114.011 43.5167 113.637 43.862C113.273 44.198 113.091 44.7253 113.091 45.444V49H110.907ZM120.411 49.112C119.609 49.112 118.895 48.944 118.269 48.608C117.653 48.272 117.163 47.8147 116.799 47.236C116.445 46.648 116.267 45.9807 116.267 45.234C116.267 44.478 116.445 43.8107 116.799 43.232C117.163 42.644 117.653 42.1867 118.269 41.86C118.895 41.524 119.609 41.356 120.411 41.356C121.205 41.356 121.914 41.524 122.539 41.86C123.165 42.1867 123.655 42.6393 124.009 43.218C124.364 43.7967 124.541 44.4687 124.541 45.234C124.541 45.9807 124.364 46.648 124.009 47.236C123.655 47.8147 123.165 48.272 122.539 48.608C121.914 48.944 121.205 49.112 120.411 49.112ZM120.411 47.32C120.775 47.32 121.102 47.236 121.391 47.068C121.681 46.9 121.909 46.662 122.077 46.354C122.245 46.0367 122.329 45.6633 122.329 45.234C122.329 44.7953 122.245 44.422 122.077 44.114C121.909 43.806 121.681 43.568 121.391 43.4C121.102 43.232 120.775 43.148 120.411 43.148C120.047 43.148 119.721 43.232 119.431 43.4C119.142 43.568 118.909 43.806 118.731 44.114C118.563 44.422 118.479 44.7953 118.479 45.234C118.479 45.6633 118.563 46.0367 118.731 46.354C118.909 46.662 119.142 46.9 119.431 47.068C119.721 47.236 120.047 47.32 120.411 47.32ZM127.518 49L124.802 41.468H126.86L129.114 47.95H128.134L130.486 41.468H132.334L134.616 47.95H133.636L135.96 41.468H137.892L135.162 49H133.048L131.046 43.442H131.69L129.618 49H127.518ZM142.192 49.112C141.306 49.112 140.615 48.888 140.12 48.44C139.626 47.9827 139.378 47.306 139.378 46.41V39.802H141.562V46.382C141.562 46.6993 141.646 46.9467 141.814 47.124C141.982 47.292 142.211 47.376 142.5 47.376C142.846 47.376 143.14 47.2827 143.382 47.096L143.97 48.636C143.746 48.7947 143.476 48.916 143.158 49C142.85 49.0747 142.528 49.112 142.192 49.112ZM138.216 43.316V41.636H143.438V43.316H138.216ZM149.774 41.356C150.372 41.356 150.904 41.4773 151.37 41.72C151.846 41.9533 152.22 42.3173 152.49 42.812C152.761 43.2973 152.896 43.9227 152.896 44.688V49H150.712V45.024C150.712 44.4173 150.577 43.9693 150.306 43.68C150.045 43.3907 149.672 43.246 149.186 43.246C148.841 43.246 148.528 43.3207 148.248 43.47C147.978 43.61 147.763 43.8293 147.604 44.128C147.455 44.4267 147.38 44.8093 147.38 45.276V49H145.196V38.612H147.38V43.554L146.89 42.924C147.161 42.42 147.548 42.0327 148.052 41.762C148.556 41.4913 149.13 41.356 149.774 41.356Z" fill="#141414"/>
<circle cx="97" cy="158" r="6" fill="#FF7777"/>
<path d="M110.793 161V155.72L111.137 156.096H109.529V155.4H111.585V161H110.793ZM112.722 161V160.456L115.002 158.256C115.204 158.064 115.354 157.896 115.45 157.752C115.551 157.603 115.618 157.467 115.65 157.344C115.687 157.216 115.706 157.093 115.706 156.976C115.706 156.688 115.604 156.461 115.402 156.296C115.199 156.131 114.903 156.048 114.514 156.048C114.215 156.048 113.946 156.099 113.706 156.2C113.466 156.296 113.258 156.448 113.082 156.656L112.538 156.184C112.751 155.912 113.036 155.704 113.394 155.56C113.756 155.411 114.154 155.336 114.586 155.336C114.975 155.336 115.314 155.4 115.602 155.528C115.89 155.651 116.111 155.829 116.266 156.064C116.426 156.299 116.506 156.576 116.506 156.896C116.506 157.077 116.482 157.256 116.434 157.432C116.386 157.608 116.295 157.795 116.162 157.992C116.028 158.189 115.836 158.411 115.586 158.656L113.554 160.616L113.362 160.304H116.746V161H112.722ZM119.116 161.064C118.721 161.064 118.337 161.003 117.964 160.88C117.596 160.757 117.294 160.592 117.06 160.384L117.428 159.752C117.614 159.928 117.857 160.072 118.156 160.184C118.454 160.296 118.774 160.352 119.116 160.352C119.532 160.352 119.854 160.264 120.084 160.088C120.318 159.907 120.436 159.664 120.436 159.36C120.436 159.067 120.324 158.832 120.1 158.656C119.881 158.475 119.532 158.384 119.052 158.384H118.604V157.824L120.268 155.776L120.38 156.096H117.316V155.4H121.012V155.944L119.356 157.984L118.94 157.736H119.204C119.881 157.736 120.388 157.888 120.724 158.192C121.065 158.496 121.236 158.883 121.236 159.352C121.236 159.667 121.158 159.955 121.004 160.216C120.849 160.477 120.614 160.685 120.3 160.84C119.99 160.989 119.596 161.064 119.116 161.064ZM121.902 159.624V159.064L124.766 155.4H125.63L122.79 159.064L122.382 158.936H126.854V159.624H121.902ZM125.014 161V159.624L125.038 158.936V157.72H125.79V161H125.014ZM129.133 161.064C128.739 161.064 128.355 161.003 127.981 160.88C127.613 160.757 127.312 160.592 127.077 160.384L127.445 159.752C127.632 159.928 127.875 160.072 128.173 160.184C128.472 160.296 128.789 160.352 129.125 160.352C129.552 160.352 129.88 160.261 130.109 160.08C130.339 159.899 130.453 159.656 130.453 159.352C130.453 159.144 130.403 158.963 130.301 158.808C130.2 158.653 130.024 158.536 129.773 158.456C129.528 158.371 129.189 158.328 128.757 158.328H127.485L127.781 155.4H130.941V156.096H128.077L128.493 155.704L128.261 158.016L127.845 157.632H128.925C129.485 157.632 129.936 157.704 130.277 157.848C130.619 157.992 130.867 158.192 131.021 158.448C131.176 158.699 131.253 158.989 131.253 159.32C131.253 159.64 131.176 159.933 131.021 160.2C130.867 160.461 130.632 160.672 130.317 160.832C130.008 160.987 129.613 161.064 129.133 161.064Z" fill="#141414"/>
<circle cx="150" cy="158" r="6" fill="#6389EB"/>
<path d="M162.663 161V160.456L164.943 158.256C165.146 158.064 165.295 157.896 165.391 157.752C165.493 157.603 165.559 157.467 165.591 157.344C165.629 157.216 165.647 157.093 165.647 156.976C165.647 156.688 165.546 156.461 165.343 156.296C165.141 156.131 164.845 156.048 164.455 156.048C164.157 156.048 163.887 156.099 163.647 156.2C163.407 156.296 163.199 156.448 163.023 156.656L162.479 156.184C162.693 155.912 162.978 155.704 163.335 155.56C163.698 155.411 164.095 155.336 164.527 155.336C164.917 155.336 165.255 155.4 165.543 155.528C165.831 155.651 166.053 155.829 166.207 156.064C166.367 156.299 166.447 156.576 166.447 156.896C166.447 157.077 166.423 157.256 166.375 157.432C166.327 157.608 166.237 157.795 166.103 157.992C165.97 158.189 165.778 158.411 165.527 158.656L163.495 160.616L163.303 160.304H166.687V161H162.663ZM167.951 161.048C167.802 161.048 167.674 160.997 167.567 160.896C167.46 160.789 167.407 160.656 167.407 160.496C167.407 160.336 167.46 160.205 167.567 160.104C167.674 160.003 167.802 159.952 167.951 159.952C168.095 159.952 168.218 160.003 168.319 160.104C168.426 160.205 168.479 160.336 168.479 160.496C168.479 160.656 168.426 160.789 168.319 160.896C168.218 160.997 168.095 161.048 167.951 161.048ZM169.085 159.624V159.064L171.949 155.4H172.813L169.973 159.064L169.565 158.936H174.037V159.624H169.085ZM172.197 161V159.624L172.221 158.936V157.72H172.973V161H172.197ZM175.043 161L178.867 155.4H179.483L175.659 161H175.043ZM175.491 158.408C175.235 158.408 175.008 158.344 174.811 158.216C174.613 158.088 174.459 157.909 174.347 157.68C174.24 157.451 174.187 157.184 174.187 156.88C174.187 156.576 174.24 156.309 174.347 156.08C174.459 155.851 174.613 155.672 174.811 155.544C175.008 155.416 175.235 155.352 175.491 155.352C175.752 155.352 175.979 155.416 176.171 155.544C176.368 155.672 176.52 155.851 176.627 156.08C176.733 156.309 176.787 156.576 176.787 156.88C176.787 157.184 176.733 157.451 176.627 157.68C176.52 157.909 176.368 158.088 176.171 158.216C175.979 158.344 175.752 158.408 175.491 158.408ZM175.491 157.952C175.736 157.952 175.928 157.859 176.067 157.672C176.205 157.48 176.275 157.216 176.275 156.88C176.275 156.544 176.205 156.283 176.067 156.096C175.928 155.904 175.736 155.808 175.491 155.808C175.251 155.808 175.059 155.904 174.915 156.096C174.776 156.283 174.707 156.544 174.707 156.88C174.707 157.211 174.776 157.472 174.915 157.664C175.059 157.856 175.251 157.952 175.491 157.952ZM179.035 161.048C178.779 161.048 178.552 160.984 178.355 160.856C178.157 160.728 178.005 160.549 177.899 160.32C177.792 160.091 177.739 159.824 177.739 159.52C177.739 159.216 177.792 158.949 177.899 158.72C178.005 158.491 178.157 158.312 178.355 158.184C178.552 158.056 178.779 157.992 179.035 157.992C179.296 157.992 179.523 158.056 179.715 158.184C179.912 158.312 180.064 158.491 180.171 158.72C180.283 158.949 180.339 159.216 180.339 159.52C180.339 159.824 180.283 160.091 180.171 160.32C180.064 160.549 179.912 160.728 179.715 160.856C179.523 160.984 179.296 161.048 179.035 161.048ZM179.035 160.592C179.275 160.592 179.464 160.499 179.603 160.312C179.747 160.12 179.819 159.856 179.819 159.52C179.819 159.189 179.747 158.928 179.603 158.736C179.464 158.544 179.275 158.448 179.035 158.448C178.795 158.448 178.603 158.544 178.459 158.736C178.32 158.923 178.251 159.184 178.251 159.52C178.251 159.856 178.32 160.12 178.459 160.312C178.603 160.499 178.795 160.592 179.035 160.592Z" fill="#141414"/>
<path d="M186.673 160.5C186.673 160.681 186.819 160.827 187 160.827C187.181 160.827 187.327 160.681 187.327 160.5H186.673ZM187.231 155.269C187.104 155.141 186.896 155.141 186.769 155.269L184.685 157.352C184.558 157.479 184.558 157.687 184.685 157.815C184.813 157.942 185.021 157.942 185.148 157.815L187 155.963L188.852 157.815C188.979 157.942 189.187 157.942 189.315 157.815C189.442 157.687 189.442 157.479 189.315 157.352L187.231 155.269ZM187.327 160.5V155.5H186.673V160.5H187.327Z" fill="#FF8933"/>
<path d="M68 121.597C74.6667 126.614 90.2 124.462 99 100.38C110 70.2779 123.471 113.571 129.5 121.597C136.005 130.257 148.5 132.756 157 87.3355C164.848 45.3978 179.642 108.097 182 115.431C183.5 120.097 189.5 143.597 212 89.3428" stroke="#6389EB" stroke-width="2" stroke-linecap="round"/>
</g>
<defs>
<filter id="filter0_d_0_76" x="0" y="0" width="279" height="218" filterUnits="userSpaceOnUse" color-interpolation-filters="sRGB">
<feFlood flood-opacity="0" result="BackgroundImageFix"/>
<feColorMatrix in="SourceAlpha" type="matrix" values="0 0 0 0 0 0 0 0 0 0 0 0 0 0 0 0 0 0 127 0" result="hardAlpha"/>
<feMorphology radius="12" operator="erode" in="SourceAlpha" result="effect1_dropShadow_0_76"/>
<feOffset dy="9"/>
<feGaussianBlur stdDeviation="22.5"/>
<feComposite in2="hardAlpha" operator="out"/>
<feColorMatrix type="matrix" values="0 0 0 0 0 0 0 0 0 0 0 0 0 0 0 0 0 0 0.1 0"/>
<feBlend mode="normal" in2="BackgroundImageFix" result="effect1_dropShadow_0_76"/>
<feBlend mode="normal" in="SourceGraphic" in2="effect1_dropShadow_0_76" result="shape"/>
</filter>
</defs>
</svg>
